<?xml version="1.0" encoding="utf-8"?>
<!-- Generator: Adobe Illustrator 22.0.1, SVG Export Plug-In . SVG Version: 6.00 Build 0)  -->
<svg version="1.1" id="图层_1" xmlns="http://www.w3.org/2000/svg" xmlns:xlink="http://www.w3.org/1999/xlink" x="0px" y="0px"
	 viewBox="0 0 560 272" style="enable-background:new 0 0 560 272;" xml:space="preserve">
<style type="text/css">
	.st0{clip-path:url(#SVGID_2_);}
	.st1{fill:#04047F;}
	.st2{fill:#FFE948;}
	.st3{fill:#CCB300;}
	.st4{fill:none;stroke:#CCB300;stroke-miterlimit:10;}
	.st5{fill:#B073FF;}
	.st6{fill:#7100A5;}
</style>
<title>silktouch_withText</title>
<g id="Mask">
	<g>
		<g>
			<defs>
				<path id="SVGID_1_" d="M40,9h192c17.7,0,32,14.3,32,32v192c0,17.7-14.3,32-32,32H40c-17.7,0-32-14.3-32-32V41
					C8,23.3,22.3,9,40,9z"/>
			</defs>
			<clipPath id="SVGID_2_">
				<use xlink:href="#SVGID_1_"  style="overflow:visible;"/>
			</clipPath>
			<g class="st0">
				<g id="Icon">
					<g id="Background">
						<path class="st1" d="M40,9h192c17.7,0,32,14.3,32,32v192c0,17.7-14.3,32-32,32H40c-17.7,0-32-14.3-32-32V41
							C8,23.3,22.3,9,40,9z"/>
					</g>
					<g id="Silk">
						<g id="Filling">
							<path class="st2" d="M299.5,204.5l-74,129c-4-63-217-100-267-186l40-147C56.5,76.5,284.5,144.5,299.5,204.5z"/>
						</g>
						<g id="Stroke">
							<path class="st3" d="M-1.5,0.5C8.7,12,20.6,21.6,32.9,30.6s25.2,17.2,38.4,25s26.6,15.1,40.1,22.3s27.1,14.2,40.8,21.2
								s27.3,14,40.9,21.2s27.1,14.5,40.3,22.3c6.6,3.9,13.2,7.9,19.6,12.1c6.5,4.2,12.8,8.6,18.9,13.4c1.5,1.2,3,2.4,4.5,3.7
								s2.9,2.5,4.3,3.9c2.9,2.6,5.6,5.4,8.1,8.4l1.8,2.3c0.6,0.8,1.2,1.6,1.7,2.4s1.1,1.6,1.6,2.4s1,1.6,1.5,2.5
								c2,3.4,3.3,7,4,10.9c-1.3-3.6-3.1-6.9-5.3-10c-2.2-3.1-4.7-5.9-7.3-8.6c-5.4-5.3-11.2-10.2-17.3-14.7
								c-12.3-9-25.1-17.3-38.4-24.7c-26.6-15.1-54-28.9-81.2-42.9S95.4,75.2,69.1,59.2c-13.2-7.9-26-16.5-38.3-25.8
								c-6.1-4.7-11.9-9.8-17.4-15.2C7.8,12.8,2.9,6.9-1.5,0.5z"/>
							<path class="st3" d="M-41.5,147.5c7.9,11.5,17.7,21.2,28.2,30c10.6,8.7,21.9,16.7,33.7,23.8c11.8,7.2,24,13.7,36.3,20
								s24.8,12.2,37.4,18.1l37.7,17.6c12.6,5.9,25,12.1,37.3,18.7c6.1,3.3,12.2,6.8,18.1,10.5c6,3.7,11.7,7.7,17.2,12.1
								c1.4,1.1,2.7,2.3,4,3.4s2.6,2.4,3.8,3.7c2.5,2.5,4.8,5.3,6.8,8.2c4,5.8,6.8,12.8,6.7,19.8c-1.2-6.7-4.3-13-8.8-18.2
								c-4.4-5.2-9.4-9.9-14.8-13.9c-10.9-8.3-22.8-15.3-35-21.8c-24.5-12.8-49.8-24-75-35.8S42,219.6,18.3,204.8
								C6.4,197.5-4.9,189.2-15.5,180c-5.2-4.7-10-9.8-14.5-15.2C-34.6,159.6-38.4,153.8-41.5,147.5z"/>
							<path class="st3" d="M61,116c-0.3,0.7-0.4,1.6-0.2,2.4c0.1,0.8,0.4,1.6,0.6,2.3c0.5,1.5,1.2,3,2,4.5c1.5,2.9,3.2,5.7,5.1,8.3
								c1.9,2.6,3.8,5.3,6,7.7s4.3,4.9,6.6,7.2c4.7,4.6,9.6,8.9,14.9,12.9c5.2,4,10.6,7.8,16.2,11.3s11.3,7,17,10.5l8.5,5.3
								c2.8,1.8,5.6,3.5,8.5,5.2c5.7,3.4,11.4,6.6,17.5,8.4s12.7,2,19.4,3c-3.3,0.8-6.6,1.3-10,1.6c-0.9,0.1-1.7,0.1-2.6,0.1
								s-1.7,0-2.6-0.1c-1.7-0.1-3.5-0.4-5.2-0.8c-3.4-0.9-6.6-2.1-9.7-3.6c-3.1-1.4-6-3.1-9-4.7s-5.8-3.3-8.7-5l-8.6-5.2
								c-5.7-3.5-11.4-6.9-17-10.5s-11.2-7.5-16.5-11.7s-10.3-8.8-15-13.6c-4.8-4.9-9-10.2-12.5-16.1c-1.8-3-3.3-6.1-4.4-9.4
								c-0.5-1.6-0.9-3.3-1.2-5c-0.1-0.9-0.1-1.7-0.1-2.6C60.1,117.5,60.4,116.7,61,116z"/>
							<line class="st4" x1="299.5" y1="204.5" x2="225.5" y2="333.5"/>
						</g>
					</g>
					<g id="Hoof">
						<g id="Filling-2">
							<path class="st5" d="M299.4,40.6l0.6,0.6c-22.7,47.6-118.1,164.3-137.4,158.7s-84-47.6-93.1-65.7s111.9-93.5,161.3-153l0,0
								L299.4,40.6z"/>
						</g>
						<g id="Stroke-2">
							<path class="st6" d="M230.7-18.9c-3.5,4.6-7.2,9-11,13.3S211.9,2.9,207.8,7c-8.1,8.2-16.6,16-25.3,23.7
								C165.2,46,147.2,60.4,129.3,75c-8.9,7.3-17.8,14.6-26.5,22c-4.4,3.7-8.7,7.5-12.8,11.4c-4.2,3.8-8.2,7.9-11.9,12.2
								c-1.8,2-3.4,4.2-4.9,6.6c-0.6,1.1-1.1,2.2-1.5,3.4c-0.3,0.8-0.3,1.7,0,2.5c1.3,2.3,2.9,4.5,4.7,6.4c1.8,2.1,3.8,4,5.9,6
								c8.5,7.6,17.5,14.7,26.9,21.1c9.4,6.5,19,12.8,28.9,18.6c4.9,2.9,9.9,5.7,15,8.2c2.5,1.3,5.1,2.4,7.7,3.4
								c0.6,0.3,1.3,0.5,1.9,0.7c0.3,0.1,0.5,0.2,0.8,0.2l0.3,0.1c0.1,0,0.2,0,0.3,0c1.1-0.1,2.2-0.3,3.3-0.8c2.5-1.1,4.8-2.4,7-3.9
								c2.3-1.6,4.5-3.3,6.7-5.1c4.4-3.6,8.6-7.5,12.7-11.4c8.2-7.9,16.1-16.3,23.7-24.9c15.3-17.1,29.7-35.1,43.6-53.4
								c6.9-9.2,13.7-18.4,20.3-27.9c6.7-9.4,12.9-19.1,18.7-29.1c-4.5,10.6-10.3,20.7-16.4,30.5S271,91,264.2,100.3
								s-13.9,18.5-21.1,27.5s-14.6,17.9-22.3,26.6s-15.5,17.2-23.8,25.3c-4.1,4.1-8.4,8-12.9,11.8c-2.3,1.9-4.6,3.7-7,5.4
								c-2.5,1.8-5.2,3.3-8,4.5c-1.6,0.7-3.3,1.1-5.1,1.1c-0.2,0-0.5,0-0.7,0l-0.8-0.1c-0.4-0.1-0.9-0.2-1.3-0.3
								c-0.7-0.2-1.5-0.5-2.2-0.8c-2.8-1-5.5-2.3-8.1-3.6c-5.3-2.6-10.3-5.4-15.4-8.3c-10-5.9-19.8-12.1-29.3-18.8
								c-9.6-6.6-18.7-13.8-27.3-21.7c-2.1-2-4.2-4.1-6.2-6.3c-2.1-2.3-4-4.8-5.4-7.5c-0.2-0.5-0.4-1-0.5-1.6
								c-0.1-0.5-0.2-1-0.2-1.6c0-0.9,0.1-1.9,0.4-2.8c0.5-1.6,1.1-3.1,2-4.5c1.6-2.6,3.4-5,5.4-7.3c3.9-4.4,8-8.5,12.3-12.4
								s8.7-7.7,13.1-11.4c8.8-7.5,17.8-14.7,26.8-21.9c18-14.4,36-28.8,53.6-43.6c8.8-7.4,17.5-14.9,26-22.6
								c4.3-3.9,8.4-7.8,12.6-11.8C222.9-10.5,226.8-14.7,230.7-18.9z"/>
						</g>
					</g>
				</g>
			</g>
		</g>
	</g>
</g>
<g id="Text">
	<path d="M304.6,151.3c-6.8-2.7-12.9-7-17.7-12.6c-4.7-5.5-7.9-12.1-9.2-19.2l10.6-1.8c1.4,5.5,4.1,10.7,7.9,14.9
		c3.9,4.2,8.7,7.5,14.1,9.6c5.9,2.3,12.2,3.5,18.6,3.4c6.3,0.1,12.6-1,18.4-3.3c5-1.9,9.3-5.2,12.5-9.4c3-4.1,4.6-9.1,4.5-14.1
		c0.2-4.2-1-8.3-3.3-11.8c-2.1-3-4.8-5.4-8-7.1c-3.3-1.7-6.8-3.1-10.4-4.1L310,86c-18.2-5.4-27.3-15.5-27.3-30.4
		c-0.1-6.5,1.8-12.8,5.5-18.2c3.9-5.4,9.2-9.7,15.4-12.3c7.1-3,14.7-4.5,22.4-4.4c7.9-0.1,15.7,1.4,22.9,4.6
		c6.6,3,12.3,7.5,16.7,13.2c4.4,5.9,7.3,12.7,8.4,20l-10.7,1.9c-0.7-5.6-3-11-6.4-15.5c-3.5-4.5-8.1-8.1-13.4-10.4
		c-5.6-2.5-11.7-3.8-17.9-3.7c-5.7-0.1-11.3,1-16.5,3.2c-4.5,1.9-8.4,4.9-11.4,8.7c-2.7,3.6-4.1,7.9-4.1,12.4c-0.1,4,1.1,7.9,3.6,11
		c2.4,2.9,5.4,5.2,8.8,6.8c3.9,1.8,7.9,3.2,12.1,4.4l26.1,7.7c4.8,1.4,9.4,3.2,13.9,5.4c4.6,2.4,8.5,5.8,11.4,10
		c3.4,4.6,5.1,10.5,5.1,17.9c0.2,7.1-1.9,14-5.9,19.9c-4.1,5.8-9.7,10.3-16.3,13c-7.6,3.1-15.8,4.7-24,4.5
		C320.5,155.8,312.3,154.3,304.6,151.3z"/>
	<path d="M405.2,36.2h-10.4V23h10.4V36.2z M405.2,153h-10.4V55.8h10.4V153z"/>
	<path d="M444.4,153H434V20.7h10.4V153z"/>
	<path d="M481.8,153h-10.4V23.4h10.4v79.2l46-46.8h14.5l-48.1,48.6l55,48.6H533l-51.2-46.8V153z"/>
	<path d="M310.1,248h-8.5v-61H278v-8.1h55.7v8.1h-23.6V248z"/>
	<path d="M342.5,246c-3.8-2.3-6.8-5.7-8.7-9.7c-2.1-4.5-3.1-9.3-3-14.2c-0.1-4.9,1-9.8,3.1-14.3c1.9-4,5-7.3,8.7-9.6
		c8.2-4.6,18.2-4.6,26.5,0c3.8,2.3,6.8,5.7,8.7,9.6c4.1,9.1,4.1,19.5,0,28.5c-1.9,4-4.9,7.3-8.7,9.6c-4,2.4-8.6,3.5-13.3,3.4
		C351.1,249.6,346.5,248.4,342.5,246z M367.6,236.2c2.7-3.5,4-8.2,4.1-14.1c0-5.9-1.3-10.6-4.1-14.1c-2.7-3.4-6.7-5.1-11.9-5.1
		c-5.2,0-9.1,1.7-11.9,5.1c-2.7,3.4-4,8.1-4,14c0,6,1.4,10.7,4.1,14.1s6.7,5.1,11.8,5.2C360.9,241.3,364.9,239.6,367.6,236.2
		L367.6,236.2z"/>
	<path d="M427.3,196.2h8.6V248h-7.6v-6.7c-1.9,2.6-4.4,4.6-7.3,5.9c-3.1,1.4-6.6,2.1-10,2.1c-5.2,0-9.3-1.3-12.4-3.8
		c-3-2.4-5.2-5.7-6.4-9.4c-1.2-3.6-1.8-7.5-1.8-11.3v-28.7h8.7v26c0,5.6,1.1,10.1,3.2,13.7c2.2,3.6,5.7,5.4,10.8,5.3
		c4.4,0,7.9-1.5,10.4-4.5s3.8-7.4,3.8-13.3L427.3,196.2z"/>
	<path d="M457.9,246c-3.7-2.3-6.6-5.7-8.5-9.7c-4-9.1-4-19.4,0-28.5c1.8-4,4.8-7.3,8.5-9.6c4-2.4,8.6-3.6,13.3-3.4
		c3.4,0,6.8,0.6,9.9,1.8c2.9,1.2,5.5,2.9,7.7,5.2c2.1,2.3,3.6,5,4.5,8l-8.5,2.6c-1-2.8-2.8-5.3-5.3-7s-5.4-2.6-8.4-2.5
		c-5.2,0-9,1.7-11.6,5.2s-3.9,8.2-4,14c0.1,5.9,1.4,10.6,4.1,14.1c2.7,3.4,6.5,5.2,11.5,5.2c6.6,0,11.1-3,13.5-9.1l8.6,2.3
		c-1.6,4.5-4.5,8.4-8.5,11.1c-4.1,2.6-8.9,4-13.7,3.8C466.5,249.6,461.9,248.4,457.9,246z"/>
	<path d="M540.5,198.7c3,2.4,5.2,5.7,6.4,9.3s1.8,7.5,1.8,11.3V248h-8.6v-26c0-5.6-1.1-10.1-3.2-13.7c-2.2-3.6-5.8-5.4-10.9-5.3
		c-4-0.2-7.8,1.5-10.4,4.5c-2.5,3-3.8,7.4-3.8,13.3V248h-8.6v-69.1h7.7v24c1.9-2.6,4.4-4.6,7.3-6c3.1-1.4,6.6-2.1,10-2.1
		C533.3,194.8,537.4,196.1,540.5,198.7z"/>
</g>
</svg>
