<?xml version="1.0" encoding="utf-8"?>
<!-- Generator: Adobe Illustrator 22.0.1, SVG Export Plug-In . SVG Version: 6.00 Build 0)  -->
<svg version="1.1" id="Mask" xmlns="http://www.w3.org/2000/svg" xmlns:xlink="http://www.w3.org/1999/xlink" x="0px" y="0px"
	 viewBox="0 0 256 256" style="enable-background:new 0 0 256 256;" xml:space="preserve">
<style type="text/css">
	.st0{clip-path:url(#SVGID_2_);}
	.st1{fill:#04047F;}
	.st2{fill:#FFE948;}
	.st3{fill:#CCB300;}
	.st4{fill:none;stroke:#CCB300;stroke-miterlimit:10;}
	.st5{fill:#AD5FFF;}
	.st6{fill:#7100A5;}
</style>
<title>icon</title>
<g>
	<defs>
		<path id="SVGID_1_" d="M32,0h192c17.7,0,32,14.3,32,32v192c0,17.7-14.3,32-32,32H32c-17.7,0-32-14.3-32-32V32C0,14.3,14.3,0,32,0z
			"/>
	</defs>
	<clipPath id="SVGID_2_">
		<use xlink:href="#SVGID_1_"  style="overflow:visible;"/>
	</clipPath>
	<g class="st0">
		<g id="Icon">
			<g id="Background">
				<path class="st1" d="M32,0h192c17.7,0,32,14.3,32,32v192c0,17.7-14.3,32-32,32H32c-17.7,0-32-14.3-32-32V32C0,14.3,14.3,0,32,0z
					"/>
			</g>
			<g id="Silk">
				<g id="Filling">
					<path class="st2" d="M291.5,195.5l-74,129c-4-63-217-100-267-186l40-147C48.5,67.5,276.5,135.5,291.5,195.5z"/>
				</g>
				<g id="Stroke">
					<path class="st3" d="M-9.5-8.5C0.7,3,12.6,12.6,24.9,21.6s25.2,17.2,38.4,25s26.6,15.1,40.1,22.3s27.1,14.2,40.8,21.2
						s27.3,14,40.9,21.2s27.1,14.5,40.3,22.3c6.6,3.9,13.2,7.9,19.6,12.1s12.8,8.6,18.9,13.4c1.5,1.2,3,2.4,4.5,3.7s2.9,2.5,4.3,3.9
						c2.9,2.6,5.6,5.4,8.1,8.4l1.8,2.3c0.6,0.8,1.2,1.6,1.7,2.4s1.1,1.6,1.6,2.4s1,1.6,1.5,2.5c2,3.4,3.3,7,4,10.9
						c-1.3-3.6-3.1-6.9-5.3-10c-2.2-3.1-4.7-5.9-7.3-8.6c-5.4-5.3-11.2-10.2-17.3-14.7c-12.3-9-25.1-17.3-38.4-24.7
						c-26.6-15.1-54-28.9-81.2-42.9S87.4,66.2,61.1,50.2c-13.2-7.9-26-16.5-38.3-25.8c-6.1-4.7-11.9-9.8-17.4-15.2
						C-0.2,3.8-5.1-2.1-9.5-8.5z"/>
					<path class="st3" d="M-49.5,138.5c7.9,11.5,17.7,21.2,28.2,30c10.6,8.7,21.9,16.7,33.7,23.8c11.8,7.2,24,13.7,36.3,20
						s24.8,12.2,37.4,18.1l37.7,17.6c12.6,5.9,25,12.1,37.3,18.7c6.1,3.3,12.2,6.8,18.1,10.5c6,3.7,11.7,7.7,17.2,12.1
						c1.4,1.1,2.7,2.3,4,3.4s2.6,2.4,3.8,3.7c2.5,2.5,4.8,5.3,6.8,8.2c4,5.8,6.8,12.8,6.7,19.8c-1.2-6.7-4.3-13-8.8-18.2
						c-4.4-5.2-9.4-9.9-14.8-13.9c-10.9-8.3-22.8-15.3-35-21.8c-24.5-12.8-49.8-24-75-35.8s-50.1-24.1-73.8-38.9
						c-11.9-7.3-23.2-15.6-33.8-24.8c-5.2-4.7-10-9.8-14.5-15.2C-42.6,150.6-46.4,144.8-49.5,138.5z"/>
					<path class="st3" d="M53,107c-0.3,0.7-0.4,1.6-0.2,2.4c0.1,0.8,0.4,1.6,0.6,2.3c0.5,1.5,1.2,3,2,4.5c1.5,2.9,3.2,5.7,5.1,8.3
						c1.9,2.6,3.8,5.3,6,7.7s4.3,4.9,6.6,7.2c4.7,4.6,9.6,8.9,14.9,12.9c5.2,4,10.6,7.8,16.2,11.3s11.3,7,17,10.5l8.5,5.3
						c2.8,1.8,5.6,3.5,8.5,5.2c5.7,3.4,11.4,6.6,17.5,8.4s12.7,2,19.4,3c-3.3,0.8-6.6,1.3-10,1.6c-0.9,0.1-1.7,0.1-2.6,0.1
						s-1.7,0-2.6-0.1c-1.7-0.1-3.5-0.4-5.2-0.8c-3.4-0.9-6.6-2.1-9.7-3.6c-3.1-1.4-6-3.1-9-4.7s-5.8-3.3-8.7-5l-8.6-5.2
						c-5.7-3.5-11.4-6.9-17-10.5s-11.2-7.5-16.5-11.7c-5.3-4.2-10.3-8.8-15-13.6c-4.8-4.9-9-10.2-12.5-16.1c-1.8-3-3.3-6.1-4.4-9.4
						c-0.5-1.6-0.9-3.3-1.2-5c-0.1-0.9-0.1-1.7-0.1-2.6C52.1,108.5,52.4,107.7,53,107z"/>
					<line class="st4" x1="291.5" y1="195.5" x2="217.5" y2="324.5"/>
				</g>
			</g>
			<g id="Hoof">
				<g id="Filling-2">
					<path class="st5" d="M291.4,31.6l0.6,0.6c-22.7,47.6-118.1,164.3-137.4,158.7s-84-47.6-93.1-65.7s111.9-93.5,161.3-153v0
						L291.4,31.6z"/>
				</g>
				<g id="Stroke-2">
					<path class="st6" d="M222.7-27.9c-3.5,4.6-7.2,9-11,13.3S203.9-6.1,199.8-2c-8.1,8.2-16.6,16-25.3,23.7
						c-17.3,15.3-35.3,29.7-53.2,44.3c-8.9,7.3-17.8,14.6-26.5,22c-4.4,3.7-8.7,7.5-12.8,11.4c-4.2,3.8-8.2,7.9-11.9,12.2
						c-1.8,2-3.4,4.2-4.9,6.6c-0.6,1.1-1.1,2.2-1.5,3.4c-0.3,0.8-0.3,1.7,0,2.5c1.3,2.3,2.9,4.5,4.7,6.4c1.8,2.1,3.8,4,5.9,6
						c8.5,7.6,17.5,14.7,26.9,21.1c9.4,6.5,19,12.8,28.9,18.6c4.9,2.9,9.9,5.7,15,8.2c2.5,1.3,5.1,2.4,7.7,3.4
						c0.6,0.3,1.3,0.5,1.9,0.7c0.3,0.1,0.5,0.2,0.8,0.2l0.3,0.1c0.1,0,0.2,0,0.3,0c1.1-0.1,2.2-0.3,3.3-0.8c2.5-1.1,4.8-2.4,7-3.9
						c2.3-1.6,4.5-3.3,6.7-5.1c4.4-3.6,8.6-7.5,12.7-11.4c8.2-7.9,16.1-16.3,23.7-24.9c15.3-17.1,29.7-35.1,43.6-53.4
						c6.9-9.2,13.7-18.4,20.3-27.9c6.7-9.4,12.9-19.1,18.7-29.1c-4.5,10.6-10.3,20.7-16.4,30.5S263,82,256.2,91.3
						s-13.9,18.5-21.1,27.5s-14.6,17.9-22.3,26.6s-15.5,17.2-23.8,25.3c-4.1,4.1-8.4,8-12.9,11.8c-2.3,1.9-4.6,3.7-7,5.4
						c-2.5,1.8-5.2,3.3-8,4.5c-1.6,0.7-3.3,1.1-5.1,1.1c-0.2,0-0.5,0-0.7,0l-0.8-0.1c-0.4-0.1-0.9-0.2-1.3-0.3
						c-0.7-0.2-1.5-0.5-2.2-0.8c-2.8-1-5.5-2.3-8.1-3.6c-5.3-2.6-10.3-5.4-15.4-8.3c-10-5.9-19.8-12.1-29.3-18.8
						c-9.6-6.6-18.7-13.8-27.3-21.7c-2.1-2-4.2-4.1-6.2-6.3c-2.1-2.3-4-4.8-5.4-7.5c-0.2-0.5-0.4-1-0.5-1.6c-0.1-0.5-0.2-1-0.2-1.6
						c0-0.9,0.1-1.9,0.4-2.8c0.5-1.6,1.1-3.1,2-4.5c1.6-2.6,3.4-5,5.4-7.3c3.9-4.4,8-8.5,12.3-12.4c4.3-4,8.7-7.8,13.1-11.5
						c8.8-7.5,17.8-14.7,26.8-21.9c18-14.4,36-28.8,53.6-43.6c8.8-7.4,17.5-14.9,26-22.6c4.3-3.9,8.4-7.8,12.6-11.8
						C214.9-19.5,218.8-23.7,222.7-27.9z"/>
				</g>
			</g>
		</g>
	</g>
</g>
</svg>
